<?xml version="1.0" standalone="no"?>
<!DOCTYPE svg PUBLIC "-//W3C//DTD SVG 20010904//EN"
 "http://www.w3.org/TR/2001/REC-SVG-20010904/DTD/svg10.dtd">
<svg version="1.0" xmlns="http://www.w3.org/2000/svg"
 width="908.000000pt" height="908.000000pt" viewBox="0 0 908.000000 908.000000"
 preserveAspectRatio="xMidYMid meet">
<metadata>
Created by potrace 1.11, written by Peter Selinger 2001-2013
</metadata>
<g transform="translate(0.000000,908.000000) scale(0.100000,-0.100000)"
fill="#000000" stroke="none">
<path d="M6600 7254 c-69 -74 -176 -186 -237 -248 -62 -62 -113 -117 -113
-122 0 -5 -38 -49 -85 -98 l-85 -89 0 -1608 0 -1609 330 0 330 0 0 1955 c0
1075 -3 1955 -7 1954 -5 0 -64 -61 -133 -135z"/>
<path d="M5772 6192 c-28 -38 -80 -96 -117 -128 -37 -32 -91 -90 -121 -129
-29 -38 -123 -142 -209 -230 l-155 -160 0 -1027 0 -1028 330 0 330 0 0 1385
c0 762 -2 1385 -4 1385 -3 0 -27 -31 -54 -68z"/>
<path d="M1929 2633 c-17 -20 -26 -582 -10 -624 12 -33 52 -44 89 -27 l27 13
3 183 c1 100 6 182 10 182 9 0 73 -121 72 -137 0 -18 39 -41 60 -36 10 3 33
34 52 71 l33 67 6 -165 c3 -91 6 -166 7 -167 1 -1 20 -8 42 -14 33 -10 43 -9
65 5 l25 16 0 308 c-1 239 -4 311 -14 325 -13 17 -68 23 -100 11 -8 -3 -40
-57 -71 -121 l-56 -115 -26 54 c-14 29 -33 68 -42 87 -9 19 -30 49 -47 67 -26
28 -39 34 -71 34 -26 0 -46 -6 -54 -17z"/>
<path d="M3545 2620 c-12 -24 -15 -79 -15 -320 0 -281 1 -291 21 -311 15 -15
28 -19 47 -14 51 13 52 15 52 207 0 105 4 177 9 174 5 -4 28 -40 50 -81 66
-120 89 -120 152 3 l44 86 5 -179 c3 -99 8 -185 13 -192 13 -21 66 -26 92 -9
l25 16 0 305 c0 292 -1 306 -20 325 -29 29 -85 27 -115 -6 -13 -14 -45 -68
-71 -120 l-47 -94 -59 105 c-63 113 -85 135 -135 135 -26 0 -36 -6 -48 -30z"/>
<path d="M6015 2425 c-14 -32 -16 -34 -45 -23 -17 5 -60 8 -96 6 -56 -3 -69
-8 -95 -34 -40 -40 -49 -117 -24 -197 13 -42 14 -59 6 -75 -13 -25 -14 -79 -2
-87 5 -3 -2 -26 -16 -51 -29 -51 -27 -87 8 -135 32 -45 70 -60 156 -60 64 0
81 4 114 25 52 35 72 69 72 121 0 78 -42 115 -156 136 -64 11 -103 27 -93 36
3 4 29 7 58 8 74 2 90 10 128 57 41 50 52 127 27 177 -15 30 -15 32 9 47 28
19 31 46 8 68 -24 25 -44 19 -59 -19z m-85 -105 c39 -39 17 -140 -30 -140 -47
0 -69 101 -30 140 11 11 25 20 30 20 6 0 19 -9 30 -20z m28 -372 c19 -16 14
-55 -10 -72 -31 -22 -74 -20 -98 4 -25 25 -25 55 -1 79 17 17 25 18 58 9 21
-5 44 -15 51 -20z"/>
<path d="M2623 2400 c-23 -9 -23 -11 -23 -204 0 -189 1 -195 22 -210 22 -16
61 -13 86 7 7 6 12 36 12 82 0 163 19 201 107 221 l48 10 0 50 0 49 -47 3
c-40 3 -51 -1 -82 -29 -31 -27 -36 -29 -36 -12 0 11 -11 25 -25 31 -30 14 -32
14 -62 2z"/>
<path d="M4263 2399 c-41 -12 -54 -36 -46 -83 6 -40 14 -43 66 -21 71 30 123
11 129 -46 3 -23 0 -24 -67 -30 -38 -3 -80 -9 -93 -13 -49 -16 -84 -155 -47
-186 8 -7 15 -18 15 -25 0 -8 16 -19 35 -25 41 -14 74 -5 132 34 37 25 38 25
45 6 11 -29 48 -43 81 -31 l27 11 0 166 0 166 -32 30 c-18 17 -47 37 -65 44
-36 16 -132 17 -180 3z m157 -258 c0 -22 -53 -71 -76 -71 -21 0 -24 5 -24 34
0 19 6 37 13 39 22 9 87 7 87 -2z"/>
<path d="M4740 2403 c-36 -13 -40 -34 -40 -213 0 -156 2 -179 18 -192 29 -26
59 -30 92 -13 l30 16 0 122 c0 134 11 167 54 167 48 0 61 -31 66 -168 5 -123
6 -127 31 -141 22 -12 31 -12 58 -2 l31 13 0 143 c0 160 -10 198 -63 246 -47
43 -128 38 -164 -10 -10 -14 -14 -13 -33 12 -20 26 -46 32 -80 20z"/>
<path d="M5315 2402 c-36 -12 -75 -44 -75 -62 0 -10 8 -28 18 -41 19 -22 20
-22 61 -6 23 9 52 17 65 17 32 0 65 -29 68 -60 3 -24 1 -25 -74 -31 -116 -10
-158 -47 -158 -143 0 -34 6 -49 31 -73 51 -54 98 -52 187 7 27 18 32 19 32 6
0 -27 43 -48 74 -37 l26 11 0 164 c0 164 0 165 -27 197 -15 17 -42 38 -60 45
-33 14 -132 17 -168 6z m138 -271 c-15 -57 -94 -81 -101 -32 -5 32 21 51 69
51 32 0 36 -3 32 -19z"/>
<path d="M6228 2394 c-34 -18 -35 -28 -3 -106 14 -34 25 -74 25 -89 0 -28 57
-172 85 -215 15 -24 46 -31 79 -18 20 8 51 73 61 129 7 39 8 39 18 15 59 -144
64 -150 113 -150 41 0 75 42 93 117 9 39 26 90 67 203 31 84 30 96 -6 115 -65
34 -82 16 -134 -143 -15 -45 -31 -80 -35 -77 -5 2 -18 42 -31 87 -25 89 -42
118 -71 118 -26 0 -42 -31 -70 -127 -12 -46 -26 -83 -29 -83 -4 0 -15 28 -24
63 -10 34 -27 88 -38 120 -18 50 -24 57 -47 57 -14 -1 -38 -8 -53 -16z"/>
<path d="M6930 2390 c-22 -22 -22 -28 -18 -165 4 -137 5 -145 32 -183 64 -92
200 -102 288 -21 57 52 68 89 68 232 0 141 -5 152 -70 152 -65 0 -70 -12 -70
-147 0 -114 -8 -153 -34 -170 -21 -15 -47 -8 -71 18 -24 26 -25 33 -25 149 0
131 -2 138 -52 150 -20 5 -32 1 -48 -15z"/>
<path d="M3010 2080 c-41 -41 -10 -110 48 -110 44 0 57 15 57 65 0 30 -5 49
-15 55 -25 16 -69 11 -90 -10z"/>
<path d="M2755 1313 c-15 -32 -42 -87 -60 -123 -17 -36 -38 -85 -45 -110 -8
-25 -20 -54 -27 -65 -16 -24 -17 -35 0 -35 6 0 18 15 25 33 7 17 28 64 46 102
115 241 121 255 96 255 -4 0 -20 -26 -35 -57z"/>
<path d="M4263 1358 c-21 -26 -43 -78 -43 -100 0 -13 -30 -79 -65 -147 -36
-69 -63 -127 -60 -129 2 -2 10 -2 18 1 18 7 107 179 107 206 0 12 16 53 35 91
19 39 35 73 36 77 1 13 -18 14 -28 1z"/>
<path d="M2360 1279 l0 -80 -22 15 c-61 43 -118 -14 -118 -118 0 -47 4 -59 27
-81 31 -28 74 -33 94 -9 11 14 13 14 21 0 23 -40 28 -7 28 169 0 158 -2 185
-15 185 -12 0 -15 -16 -15 -81z m-18 -106 c13 -12 18 -30 18 -69 0 -60 -17
-84 -59 -84 -24 0 -30 5 -35 31 -21 108 19 174 76 122z"/>
<path d="M7882 1178 c3 -165 5 -183 21 -186 16 -3 17 11 17 182 0 180 -1 186
-20 186 -20 0 -20 -5 -18 -182z"/>
<path d="M310 1169 c0 -140 3 -180 13 -177 8 3 13 31 15 81 l3 77 39 0 c33 0
40 3 40 20 0 17 -7 20 -40 20 l-40 0 0 65 0 65 70 0 c56 0 70 3 70 15 0 12
-16 15 -85 15 l-85 0 0 -181z"/>
<path d="M1690 1170 l0 -180 100 0 c82 0 100 3 100 15 0 12 -16 15 -80 15
l-80 0 0 65 0 65 40 0 c33 0 40 3 40 20 0 17 -7 20 -40 20 l-40 0 0 65 0 65
80 0 c64 0 80 3 80 15 0 12 -18 15 -100 15 l-100 0 0 -180z"/>
<path d="M3010 1175 c0 -152 2 -176 16 -182 24 -9 34 15 34 80 l0 57 34 0 c54
0 81 15 101 56 20 43 16 98 -10 138 -16 24 -22 26 -96 26 l-79 0 0 -175z m143
128 c8 -10 16 -27 17 -38 7 -68 -13 -95 -71 -95 l-39 0 0 75 0 75 38 0 c24 0
45 -7 55 -17z"/>
<path d="M3280 1337 c0 -8 11 -51 25 -97 14 -46 25 -97 25 -114 0 -17 6 -54
12 -83 11 -45 16 -53 35 -53 13 0 23 3 23 8 1 4 11 42 24 86 l23 79 18 -69
c24 -89 31 -104 56 -104 23 0 34 24 44 100 8 64 40 217 50 243 5 12 2 17 -9
17 -21 0 -31 -28 -40 -105 -8 -63 -34 -175 -45 -187 -4 -4 -17 35 -31 88 -21
83 -26 95 -44 92 -16 -2 -25 -20 -45 -96 -15 -59 -27 -88 -32 -79 -9 15 -29
119 -36 182 -9 92 -13 105 -33 105 -11 0 -20 -6 -20 -13z"/>
<path d="M3732 1179 c-28 -95 -49 -176 -46 -180 11 -19 26 -7 41 31 l16 40 57
0 57 0 16 -40 c15 -39 30 -50 42 -30 3 5 -12 69 -34 142 -22 73 -42 150 -46
171 -5 30 -10 37 -28 37 -21 0 -28 -15 -75 -171z m111 -41 l6 -38 -50 0 c-27
0 -49 2 -49 4 0 2 7 23 15 46 8 23 15 53 15 66 0 12 5 35 11 51 11 28 12 27
29 -32 9 -33 19 -77 23 -97z"/>
<path d="M4562 1338 c3 -7 23 -14 46 -16 l42 -3 0 -122 c0 -150 -9 -172 -65
-172 -36 0 -41 3 -50 33 -12 42 -45 45 -45 4 0 -62 107 -96 164 -51 l26 20 0
160 0 159 -61 0 c-44 0 -60 -3 -57 -12z"/>
<path d="M6842 1173 l3 -178 52 -3 c66 -4 120 20 131 57 4 14 7 74 7 133 0 93
-3 110 -21 135 -19 26 -27 28 -98 31 l-76 3 2 -178z m130 130 c15 -14 18 -32
18 -131 0 -131 -9 -152 -67 -152 l-33 0 0 150 0 150 32 0 c17 0 40 -7 50 -17z"/>
<path d="M1297 1333 c-4 -3 -7 -72 -7 -153 0 -142 1 -147 24 -169 25 -24 66
-26 74 -3 2 8 -7 12 -26 12 -37 0 -42 12 -42 100 l0 69 33 3 c20 2 32 8 32 18
0 10 -12 16 -32 18 -33 3 -33 4 -33 58 0 50 -7 64 -23 47z"/>
<path d="M6145 1330 c-8 -14 3 -30 21 -30 8 0 14 9 14 20 0 21 -24 28 -35 10z"/>
<path d="M6530 1181 l0 -160 31 -16 c33 -18 80 -17 86 2 3 7 -10 13 -34 15
l-38 3 -3 82 -3 82 38 3 c52 4 53 32 1 36 l-37 3 -3 52 c-2 40 -7 53 -20 55
-17 3 -18 -10 -18 -157z"/>
<path d="M564 1217 c-2 -7 -3 -60 -2 -118 2 -84 6 -104 18 -104 12 0 16 17 20
75 6 84 22 118 60 122 32 4 33 32 2 36 -15 2 -31 -5 -43 -19 -14 -16 -19 -18
-19 -7 0 20 -29 32 -36 15z"/>
<path d="M784 1196 c-31 -31 -34 -40 -34 -91 0 -49 4 -60 29 -86 38 -38 91
-40 126 -4 21 20 25 34 25 84 0 71 -13 105 -47 120 -40 18 -63 13 -99 -23z
m98 -23 c24 -22 25 -109 1 -135 -40 -45 -93 -6 -93 69 0 69 50 105 92 66z"/>
<path d="M1017 1223 c-4 -3 -7 -58 -7 -120 0 -104 2 -114 18 -111 14 3 17 16
20 83 3 83 18 115 53 115 10 0 27 -12 38 -26 17 -22 21 -41 21 -100 0 -59 3
-74 15 -74 12 0 15 17 15 94 0 93 0 95 -31 120 -34 29 -70 34 -89 11 -12 -14
-15 -14 -30 0 -9 8 -20 12 -23 8z"/>
<path d="M1977 1224 c-4 -4 -7 -59 -7 -121 0 -87 3 -114 13 -111 8 3 13 32 15
84 3 85 18 114 58 114 42 0 64 -44 64 -127 0 -55 3 -74 13 -71 8 3 13 30 15
79 2 57 -2 82 -16 109 -25 46 -64 60 -103 38 -25 -15 -30 -15 -37 -2 -4 8 -11
11 -15 8z"/>
<path d="M4808 1219 c-34 -19 -21 -38 21 -32 32 4 41 2 55 -18 25 -36 20 -46
-30 -54 -52 -7 -84 -34 -84 -68 0 -50 58 -72 105 -41 23 15 25 15 25 -1 0 -9
6 -15 13 -13 20 7 21 151 2 192 -21 43 -68 58 -107 35z m92 -146 c0 -26 -31
-53 -62 -53 -24 0 -28 4 -28 29 0 32 9 39 58 40 24 1 32 -3 32 -16z"/>
<path d="M5004 1217 c-3 -8 4 -37 16 -66 11 -28 20 -58 20 -66 0 -31 35 -95
52 -95 21 0 33 22 42 75 4 22 16 64 28 93 17 44 19 55 8 62 -21 13 -28 4 -35
-43 -8 -52 -35 -128 -44 -123 -5 3 -46 120 -57 164 -4 16 -23 15 -30 -1z"/>
<path d="M5278 1219 c-10 -5 -18 -16 -18 -24 0 -11 10 -13 43 -9 39 6 44 4 55
-20 18 -40 16 -43 -33 -50 -45 -7 -85 -41 -85 -72 0 -43 83 -72 110 -39 11 14
14 13 25 -1 23 -33 35 -5 35 82 0 81 -1 87 -29 115 -31 30 -71 37 -103 18z
m92 -145 c0 -32 -20 -54 -50 -54 -26 0 -30 4 -30 28 0 37 6 42 47 42 23 0 33
-5 33 -16z"/>
<path d="M5528 1217 c-12 -10 -18 -28 -18 -59 0 -39 4 -46 28 -58 42 -22 62
-41 62 -63 0 -17 -5 -19 -50 -15 -27 3 -50 2 -50 -1 0 -32 80 -42 118 -15 44
30 23 84 -43 113 -32 14 -45 26 -45 40 0 27 28 41 59 30 16 -6 28 -6 35 1 26
26 -65 52 -96 27z"/>
<path d="M5755 1213 c-25 -24 -35 -58 -35 -118 0 -45 4 -59 25 -80 28 -27 71
-33 106 -15 34 19 21 30 -27 23 -57 -8 -74 9 -74 73 0 82 34 114 90 84 29 -16
38 10 10 32 -28 22 -73 23 -95 1z"/>
<path d="M5956 1223 c-3 -4 -6 -58 -6 -120 0 -104 2 -114 18 -111 14 3 18 17
22 84 5 85 17 111 53 116 12 2 22 10 22 18 0 22 -34 24 -56 4 -10 -9 -19 -12
-19 -7 0 13 -25 24 -34 16z"/>
<path d="M6272 1222 c-9 -7 -12 -49 -10 -178 3 -142 5 -169 18 -169 12 0 16
16 18 73 3 72 3 72 25 57 31 -21 67 -19 101 8 26 21 29 30 30 83 1 99 -51 153
-117 122 -28 -14 -35 -14 -43 -2 -5 8 -14 11 -22 6z m120 -49 c13 -11 18 -30
18 -65 0 -65 -13 -88 -50 -88 -42 0 -64 37 -57 97 7 67 49 93 89 56z"/>
<path d="M7174 1211 c-25 -15 -33 -28 -38 -63 -11 -72 2 -122 34 -141 32 -19
92 -22 121 -7 35 19 20 29 -36 23 -62 -6 -85 5 -85 43 0 23 3 24 65 24 71 0
91 16 79 64 -15 60 -88 90 -140 57z m82 -36 c35 -36 26 -49 -34 -53 -50 -3
-52 -2 -52 22 0 23 31 56 53 56 4 0 19 -11 33 -25z"/>
<path d="M7387 1223 c-13 -12 -7 -39 26 -119 44 -108 54 -123 67 -104 24 36
82 200 76 215 -11 31 -29 9 -59 -74 l-30 -82 -22 68 c-35 106 -40 115 -58 96z"/>
<path d="M7664 1211 c-40 -24 -58 -76 -49 -136 5 -36 12 -48 39 -65 36 -22 86
-26 117 -10 34 19 20 29 -31 23 -57 -7 -80 6 -80 43 0 23 4 24 60 24 66 0 86
17 74 64 -14 59 -81 88 -130 57z m79 -43 c26 -35 15 -48 -39 -48 -40 0 -44 2
-44 24 0 25 36 59 54 53 5 -2 18 -15 29 -29z"/>
<path d="M8070 1223 c-29 -8 -54 -56 -58 -113 -4 -49 -1 -60 23 -88 30 -36 75
-43 111 -17 26 17 37 77 28 146 -6 41 -12 52 -35 64 -28 15 -41 16 -69 8z m62
-50 c13 -12 18 -31 18 -73 0 -62 -11 -80 -50 -80 -39 0 -50 18 -50 81 0 81 37
113 82 72z"/>
<path d="M8272 1222 c-9 -7 -12 -49 -10 -178 3 -142 5 -169 18 -169 12 0 16
16 18 73 3 72 3 72 25 57 33 -23 80 -19 107 10 18 20 23 36 24 82 1 102 -49
153 -118 120 -28 -13 -34 -13 -42 -1 -5 8 -14 11 -22 6z m130 -49 c13 -11 18
-30 18 -65 0 -68 -13 -88 -55 -88 -48 0 -69 34 -62 97 7 68 56 95 99 56z"/>
<path d="M8564 1196 c-31 -31 -34 -39 -34 -92 0 -33 4 -64 8 -70 27 -39 100
-56 143 -34 34 19 21 30 -26 23 -50 -6 -85 13 -85 49 0 15 8 18 54 18 76 0 86
6 86 47 0 26 -8 42 -31 64 -41 38 -73 37 -115 -5z m100 -29 c11 -43 8 -47 -44
-47 -43 0 -50 3 -50 19 0 25 45 60 69 54 11 -3 22 -15 25 -26z"/>
<path d="M8781 1216 c-8 -9 -11 -50 -9 -117 3 -96 4 -104 23 -104 18 0 21 8
25 80 3 44 9 86 13 92 4 7 22 16 40 21 18 5 32 15 32 22 0 24 -35 24 -66 1
-23 -17 -29 -18 -29 -7 0 22 -16 28 -29 12z"/>
<path d="M6150 1104 c0 -88 3 -115 13 -112 8 3 13 38 15 116 2 95 0 112 -13
112 -13 0 -15 -18 -15 -116z"/>
<path d="M1460 1105 c0 -12 14 -15 70 -15 56 0 70 3 70 15 0 12 -14 15 -70 15
-56 0 -70 -3 -70 -15z"/>
</g>
</svg>
